<?xml version="1.0" encoding="UTF-8"?>
<svg xmlns="http://www.w3.org/2000/svg" viewBox="0 0 800 900" width="800" height="900">
  <title>Map of Africa</title>
  <!-- Simplified Africa map with ISO 3166-1 alpha-2 country IDs -->
  <!-- Morocco -->
  <path id="MA" d="M225,95 L270,80 L310,85 L320,105 L300,130 L260,140 L230,135 L220,115 Z" />
  <!-- Algeria -->
  <path id="DZ" d="M270,80 L310,85 L350,75 L400,90 L420,130 L410,180 L380,220 L340,230 L300,210 L280,180 L260,140 L300,130 L320,105 L310,85 Z" />
  <!-- Tunisia -->
  <path id="TN" d="M350,75 L370,70 L380,85 L375,105 L360,100 L350,85 Z" />
  <!-- Libya -->
  <path id="LY" d="M375,105 L380,85 L400,90 L420,130 L460,100 L510,110 L530,150 L520,200 L490,240 L450,250 L410,230 L410,180 L420,130 Z" />
  <!-- Egypt -->
  <path id="EG" d="M510,110 L530,100 L560,105 L575,130 L570,170 L555,200 L530,220 L510,210 L520,200 L530,150 Z" />
  <!-- Western Sahara (not a sovereign state, included for geography) -->
  <path id="EH" d="M190,130 L225,95 L220,115 L230,135 L260,140 L240,165 L210,175 L190,160 Z" />
  <!-- Mauritania -->
  <path id="MR" d="M190,160 L210,175 L240,165 L260,180 L250,220 L240,250 L210,260 L180,250 L170,220 L175,190 Z" />
  <!-- Mali -->
  <path id="ML" d="M240,165 L260,140 L280,180 L300,210 L290,240 L270,260 L250,270 L240,250 L250,220 L260,180 Z" />
  <!-- Niger -->
  <path id="NE" d="M300,210 L340,230 L380,220 L400,240 L390,270 L370,290 L340,290 L320,280 L290,270 L290,240 Z" />
  <!-- Chad -->
  <path id="TD" d="M400,240 L410,230 L450,250 L460,280 L450,320 L430,340 L410,330 L400,310 L390,290 L390,270 Z" />
  <!-- Sudan -->
  <path id="SD" d="M490,240 L510,210 L530,220 L550,250 L540,300 L520,340 L500,350 L480,330 L470,310 L460,280 L450,250 Z" />
  <!-- South Sudan -->
  <path id="SS" d="M460,330 L470,310 L480,330 L500,350 L490,370 L470,380 L450,370 L440,350 Z" />
  <!-- Eritrea -->
  <path id="ER" d="M540,230 L555,200 L570,220 L565,240 L550,250 Z" />
  <!-- Djibouti -->
  <path id="DJ" d="M570,260 L580,250 L585,265 L575,275 Z" />
  <!-- Ethiopia -->
  <path id="ET" d="M500,270 L520,260 L540,270 L565,260 L570,280 L560,310 L535,330 L510,340 L500,350 L490,330 L480,310 L490,290 Z" />
  <!-- Somalia -->
  <path id="SO" d="M565,260 L580,250 L585,265 L595,280 L600,310 L590,360 L570,400 L550,370 L535,330 L560,310 L570,280 Z" />
  <!-- Senegal -->
  <path id="SN" d="M160,280 L190,275 L200,280 L195,295 L180,300 L160,295 Z" />
  <!-- Gambia -->
  <path id="GM" d="M163,290 L190,288 L190,296 L163,296 Z" />
  <!-- Guinea-Bissau -->
  <path id="GW" d="M155,300 L175,300 L180,315 L165,318 Z" />
  <!-- Guinea -->
  <path id="GN" d="M175,300 L195,295 L210,305 L220,320 L210,335 L195,330 L185,320 L180,315 Z" />
  <!-- Sierra Leone -->
  <path id="SL" d="M175,325 L195,330 L195,345 L180,350 L170,340 Z" />
  <!-- Liberia -->
  <path id="LR" d="M195,345 L210,340 L225,355 L215,370 L195,365 L185,355 Z" />
  <!-- Côte d'Ivoire -->
  <path id="CI" d="M225,320 L250,310 L260,330 L255,360 L235,375 L215,370 L225,355 L210,340 L210,335 L220,320 Z" />
  <!-- Burkina Faso -->
  <path id="BF" d="M250,270 L290,270 L290,290 L270,300 L250,310 L240,295 L245,280 Z" />
  <!-- Ghana -->
  <path id="GH" d="M260,330 L270,310 L280,310 L285,340 L275,370 L260,375 L255,360 Z" />
  <!-- Togo -->
  <path id="TG" d="M285,340 L290,320 L295,340 L290,370 L280,375 L275,370 Z" />
  <!-- Benin -->
  <path id="BJ" d="M295,340 L300,310 L310,310 L310,345 L300,375 L290,370 Z" />
  <!-- Nigeria -->
  <path id="NG" d="M310,310 L320,280 L340,290 L370,290 L385,310 L380,340 L365,365 L340,380 L320,385 L310,370 L310,345 Z" />
  <!-- Cameroon -->
  <path id="CM" d="M370,310 L385,310 L390,330 L395,360 L380,390 L365,400 L350,395 L345,380 L355,370 L365,365 L380,340 Z" />
  <!-- Equatorial Guinea -->
  <path id="GQ" d="M345,405 L360,402 L362,415 L347,418 Z" />
  <!-- Gabon -->
  <path id="GA" d="M350,395 L365,400 L375,420 L370,445 L355,450 L340,435 L338,415 Z" />
  <!-- Republic of the Congo -->
  <path id="CG" d="M375,420 L395,410 L410,430 L405,460 L390,475 L370,465 L370,445 Z" />
  <!-- São Tomé and Príncipe -->
  <path id="ST" d="M325,430 L332,428 L334,436 L327,438 Z" />
  <!-- Democratic Republic of the Congo -->
  <path id="CD" d="M395,360 L410,330 L430,340 L450,370 L470,380 L490,370 L500,390 L505,420 L500,460 L485,490 L460,500 L440,490 L420,480 L405,460 L410,430 L395,410 L375,420 L370,400 L380,390 Z" />
  <!-- Central African Republic -->
  <path id="CF" d="M400,310 L410,330 L430,340 L440,350 L450,340 L460,330 L470,340 L460,360 L450,370 L430,350 L410,340 L395,360 L385,340 L390,330 Z" />
  <!-- Cape Verde (island, shown as dot) -->
  <circle id="CV" cx="115" cy="290" r="6" />
  <!-- Comoros (island) -->
  <circle id="KM" cx="575" cy="530" r="5" />
  <!-- Seychelles (island) -->
  <circle id="SC" cx="620" cy="460" r="4" />
  <!-- Mauritius (island) -->
  <circle id="MU" cx="625" cy="570" r="4" />
  <!-- Madagascar -->
  <path id="MG" d="M575,500 L590,490 L600,510 L605,550 L598,590 L580,610 L565,590 L560,555 L565,520 Z" />
  <!-- Uganda -->
  <path id="UG" d="M470,380 L490,370 L500,385 L495,405 L480,415 L465,405 L460,390 Z" />
  <!-- Kenya -->
  <path id="KE" d="M500,350 L520,345 L535,360 L540,390 L530,420 L510,430 L495,415 L495,405 L500,385 L500,370 Z" />
  <!-- Rwanda -->
  <path id="RW" d="M465,410 L480,415 L478,428 L463,425 Z" />
  <!-- Burundi -->
  <path id="BI" d="M463,425 L478,428 L476,442 L461,440 Z" />
  <!-- Tanzania -->
  <path id="TZ" d="M495,415 L510,430 L530,420 L545,440 L540,480 L525,510 L505,510 L490,495 L485,470 L480,445 L476,442 L478,428 L480,415 Z" />
  <!-- Angola -->
  <path id="AO" d="M340,465 L370,465 L390,475 L405,460 L420,480 L425,510 L420,545 L400,570 L370,575 L345,555 L335,520 L330,490 Z" />
  <!-- Zambia -->
  <path id="ZM" d="M420,480 L440,490 L460,500 L470,520 L460,550 L440,560 L420,555 L400,570 L420,545 L425,510 Z" />
  <!-- Malawi -->
  <path id="MW" d="M485,490 L500,485 L508,510 L505,545 L490,550 L480,530 L478,505 Z" />
  <!-- Mozambique -->
  <path id="MZ" d="M490,550 L505,545 L520,530 L535,520 L540,550 L535,590 L520,620 L500,640 L485,630 L475,610 L470,585 L475,560 Z" />
  <!-- Namibia -->
  <path id="NA" d="M345,555 L370,575 L380,610 L385,650 L370,670 L345,665 L325,640 L320,610 L330,580 Z" />
  <!-- Botswana -->
  <path id="BW" d="M380,610 L400,600 L420,610 L430,640 L420,665 L395,670 L370,670 L385,650 Z" />
  <!-- Zimbabwe -->
  <path id="ZW" d="M420,555 L440,560 L460,565 L470,585 L460,610 L440,620 L420,610 L400,600 L405,580 Z" />
  <!-- South Africa -->
  <path id="ZA" d="M345,665 L370,670 L395,670 L420,665 L440,670 L460,680 L470,710 L460,740 L435,760 L405,770 L375,760 L350,740 L340,710 L338,690 Z" />
  <!-- Lesotho -->
  <path id="LS" d="M415,720 L430,715 L435,730 L420,735 Z" />
  <!-- Eswatini -->
  <path id="SZ" d="M455,680 L465,675 L468,690 L458,693 Z" />
</svg>
